<svg width="34" height="34" viewBox="0 0 34 34" fill="none" xmlns="http://www.w3.org/2000/svg">
<path d="M10.914 22.6H30.1V25H10.2C8.60614 25 7.3 23.6939 7.3 22.1C7.3 21.5907 7.43093 21.1154 7.65912 20.7161L7.65917 20.7161L7.66292 20.7093L9.95792 16.5443L10.0815 16.3201L9.97176 16.0887L3.85176 3.18573L3.71624 2.9H3.4H0.5V0.499999H5.24919L8.05227 6.13858L8.19019 6.416H8.5H30C30.4809 6.416 31.2843 6.4193 31.9012 6.5949C32.2126 6.68351 32.3995 6.79579 32.4888 6.90346C32.5457 6.97204 32.6003 7.07866 32.5336 7.31484C31.0641 10.252 30.4571 11.2647 30.2374 11.6313C30.2069 11.682 30.1839 11.7204 30.1671 11.7498C30.1667 11.7505 30.1663 11.7512 30.1659 11.7519L27.2782 16.6969L27.2781 16.6968L27.2716 16.7086C26.7799 17.6052 25.8244 18.2 24.735 18.2H12.07H11.7749L11.6323 18.4583L10.1023 21.2293L10.0708 21.2864L10.0549 21.3497L10.0039 21.5537L9.989 21.6134V21.675C9.989 22.1891 10.3999 22.6 10.914 22.6ZM7.317 30.6C7.317 29.0029 8.6094 27.7 10.2 27.7C11.7939 27.7 13.1 29.0061 13.1 30.6C13.1 32.1939 11.7939 33.5 10.2 33.5C8.6094 33.5 7.317 32.1971 7.317 30.6ZM24.317 30.6C24.317 29.0029 25.6094 27.7 27.2 27.7C28.7939 27.7 30.1 29.0061 30.1 30.6C30.1 32.1939 28.7939 33.5 27.2 33.5C25.6094 33.5 24.317 32.1971 24.317 30.6Z" stroke="black"/>
</svg>
