<svg width="33" height="33" viewBox="0 0 33 33" fill="none" xmlns="http://www.w3.org/2000/svg">
<path d="M22 11.5H22.5V11V3.66667V3.16667H22H3.66667H3.16667V3.66667V11V11.5H3.66667H22ZM3.66667 0.5H25.4596L32.5 7.54044V29.3333C32.5 31.0739 31.0739 32.5 29.3333 32.5H3.66667C1.90944 32.5 0.5 31.0755 0.5 29.3333V3.66667C0.5 1.92451 1.90944 0.5 3.66667 0.5ZM10.5 23.8333C10.5 27.1528 13.1805 29.8333 16.5 29.8333C19.8195 29.8333 22.5 27.1528 22.5 23.8333C22.5 20.5139 19.8195 17.8333 16.5 17.8333C13.1805 17.8333 10.5 20.5139 10.5 23.8333Z" stroke="black"/>
</svg>
