<svg width="287" height="404" viewBox="0 0 287 404" fill="none" xmlns="http://www.w3.org/2000/svg">
<path d="M71.7068 14.9974L95.3583 1C95.3583 1 109.43 11.4981 142.215 11.4981C175 11.4981 192.195 1 192.195 1L247.531 30.4946L257.795 41.4926L283.379 144L285.5 152.5L265 161.5L238.5 165L237.5 157.5L236 142V140C236 140 220.244 199.658 219.5 237.457C219.114 257.086 221.547 282.71 229.98 307C239.244 333.684 250.262 358.758 255.194 372.5C256.95 377.392 258.055 379.5 257.795 382.43C257.535 385.361 198.889 404.426 145.785 402.927C92.6808 401.427 35.114 391.5 33.329 382.43C33.0885 381.208 33.6095 377.684 34.6911 372.5C37.6059 358.529 44.5927 332.503 51.7206 307C61.5787 271.729 64.5 272.5 67 237.457C69.5 202.414 56.5 140 56.5 140C55.1311 142.738 55.257 146.732 51.7206 157.5C50.0902 162.465 49.5 165 49.5 165L20.5 160.5C20.5 160.5 4.29597 153.329 1 152L3.28073 143.5L30.6515 41.4926L33.329 36.4935L37.3453 33.4941L49.8404 26.9953L71.7068 14.9974Z" fill="white"/>
<path d="M95.3583 1L71.7068 14.9974L49.8404 26.9953M95.3583 1C95.3583 1 109.43 11.4981 142.215 11.4981C175 11.4981 192.195 1 192.195 1M95.3583 1C95.3583 1 123 66 142.215 66C162 66 192.195 1 192.195 1M49.8404 26.9953L37.3453 33.4941L33.329 36.4935L30.6515 41.4926L3.28073 143.5M49.8404 26.9953L56.5 140M56.5 140C56.5 140 69.5 202.414 67 237.457C64.5 272.5 61.5787 271.729 51.7206 307M56.5 140C55.1311 142.738 55.257 146.732 51.7206 157.5M236 140C236 140 220.244 199.658 219.5 237.457C219.114 257.086 221.547 282.71 229.98 307M236 140L247.531 30.4946M236 140V142L237.5 157.5M247.531 30.4946L257.795 41.4926L283.379 144M247.531 30.4946L192.195 1M51.7206 307C51.7206 307 56.5 340 71.7068 351.5M51.7206 307C44.5927 332.503 37.606 358.529 34.6911 372.5M229.98 307C229.98 307 229.98 339 214.954 351.5M229.98 307C239.244 333.684 250.262 358.757 255.194 372.5M3.28073 143.5L1 152C4.29597 153.329 20.5 160.5 20.5 160.5L49.5 165C49.5 165 50.0902 162.465 51.7206 157.5M3.28073 143.5L23.5 152L51.7206 157.5M283.379 144L285.5 152.5L265 161.5L238.5 165L237.5 157.5M283.379 144L262 152.5L237.5 157.5M34.6911 372.5C33.6095 377.684 33.0885 381.208 33.329 382.43C35.114 391.5 92.6808 401.427 145.785 402.927C198.889 404.426 257.535 385.361 257.795 382.43C258.055 379.5 256.95 377.392 255.194 372.5M34.6911 372.5C34.6911 372.5 95.07 387.5 145.785 389C196.5 390.5 255.194 372.5 255.194 372.5" stroke="black"/>
<path d="M165.111 287.773C146.652 284.521 118.964 267.258 103 257C136.675 275.014 173.093 288.023 192.051 291.026C187.311 293.277 179.885 290.376 165.111 287.773Z" fill="black" fill-opacity="0.1"/>
<path d="M114.5 9C114.5 9 98 7.30574 121 47.5C121 47.5 107.5 29 96 2L104.5 6L114.5 9Z" fill="black" fill-opacity="0.4"/>
<path d="M175.5 8C175.5 8 186.5 7.5 168.5 42C168.5 42 180.5 25 191.5 2L175.5 8Z" fill="black" fill-opacity="0.4"/>
<path d="M235 125C236.403 129.941 238.617 130.723 258.448 132.068C252.679 131.38 241.33 128.847 235 125Z" fill="black" fill-opacity="0.1"/>
<path d="M56 124C54.1449 130.292 51.2181 131.288 25 133C32.6263 132.124 47.6316 128.898 56 124Z" fill="black" fill-opacity="0.1"/>
</svg>
