<?xml version="1.0" standalone="no"?>
<!DOCTYPE svg PUBLIC "-//W3C//DTD SVG 20010904//EN"
 "http://www.w3.org/TR/2001/REC-SVG-20010904/DTD/svg10.dtd">
<svg version="1.0" xmlns="http://www.w3.org/2000/svg"
 width="816.000000pt" height="816.000000pt" viewBox="0 0 816.000000 816.000000"
 preserveAspectRatio="xMidYMid meet">
<metadata>
Created by potrace 1.11, written by Peter Selinger 2001-2013
</metadata>
<g transform="translate(0.000000,816.000000) scale(0.100000,-0.100000)"
fill="#000000" stroke="none">
<path d="M5027 8154 c-7 -12 29 -98 130 -302 79 -163 92 -199 61 -175 -10 8
-86 34 -108 38 -3 0 -9 3 -15 6 -5 4 -41 17 -80 29 -38 12 -74 25 -80 29 -5 3
-15 6 -20 7 -6 1 -69 22 -140 47 l-130 46 -170 0 c-174 -1 -198 1 -345 26 -98
16 -151 24 -200 31 -42 6 -75 12 -75 14 0 1 -11 3 -25 5 -20 2 -115 17 -255
39 -11 2 -42 7 -70 11 -27 4 -53 9 -57 11 -4 2 -9 0 -12 -5 -4 -5 2 -12 12
-15 11 -4 24 -17 30 -30 27 -59 -55 -79 -378 -90 -149 -6 -181 -16 -147 -50
12 -12 188 -86 204 -86 12 0 159 -49 150 -49 -4 -1 -65 11 -135 25 -70 14
-140 28 -157 30 -16 3 -42 9 -56 14 -59 19 -99 1 -199 -87 -13 -13 -28 -23
-31 -23 -3 0 -17 -10 -31 -22 -32 -29 -46 -40 -136 -108 -39 -30 -72 -58 -72
-62 0 -5 -4 -8 -10 -8 -10 0 -37 -20 -72 -52 -10 -10 -21 -18 -24 -18 -3 0
-11 -6 -18 -12 -13 -13 -48 -41 -121 -97 -22 -17 -44 -34 -50 -39 -5 -4 -30
-23 -55 -42 -25 -19 -46 -38 -48 -42 -5 -12 -20 -10 -55 7 -37 16 -187 76
-202 80 -5 1 -21 7 -35 12 -14 6 -41 14 -60 18 -19 4 -39 10 -45 13 -16 10
-59 10 -78 0 -18 -9 -17 -11 28 -61 70 -76 84 -122 70 -237 -2 -20 -34 -80
-51 -98 -8 -7 -14 -17 -14 -21 0 -4 -23 -31 -51 -60 l-50 -52 -50 76 c-27 42
-49 78 -49 80 0 5 -6 13 -56 72 -27 32 -46 23 -34 -15 19 -57 18 -94 -4 -200
-23 -110 -118 -334 -197 -467 -16 -27 -33 -57 -36 -65 -4 -8 -9 -17 -13 -20
-3 -3 -20 -25 -37 -50 -54 -80 -131 -149 -160 -144 -7 1 -19 2 -26 3 -8 0 -19
13 -26 29 -25 53 -28 130 -15 392 6 119 5 133 -9 122 -12 -10 -22 -39 -27 -77
-1 -3 -7 -24 -16 -47 -8 -23 -17 -55 -20 -72 -3 -17 -9 -47 -14 -66 -5 -19
-12 -53 -16 -75 -3 -22 -8 -43 -11 -48 -2 -4 -6 -20 -9 -35 -5 -27 -32 -163
-39 -192 -2 -8 -18 -87 -35 -175 -18 -88 -34 -169 -36 -180 -2 -11 -6 -31 -9
-45 -7 -35 -12 -64 -31 -155 -9 -44 -18 -89 -19 -100 -3 -18 -15 -81 -30 -155
-3 -14 -8 -41 -11 -60 -3 -19 -8 -44 -11 -55 -9 -28 -12 -44 -18 -88 -2 -21
-7 -42 -10 -47 -3 -6 -8 -18 -10 -28 -4 -24 -38 -92 -124 -247 -73 -134 -88
-172 -99 -260 -8 -57 -6 -601 1 -715 8 -111 17 -229 22 -280 13 -143 17 -189
20 -225 2 -22 6 -62 9 -90 15 -132 18 -153 21 -190 3 -22 7 -58 10 -80 2 -22
7 -62 10 -90 7 -75 15 -118 25 -140 5 -11 32 -99 60 -195 28 -96 57 -197 65
-225 9 -27 17 -59 19 -71 2 -11 11 -45 20 -75 9 -30 16 -56 16 -59 1 -3 5 -21
10 -40 5 -19 11 -46 14 -60 3 -14 16 -77 29 -140 23 -106 36 -178 37 -207 0
-8 29 -10 107 -6 60 3 109 7 111 8 4 3 11 41 18 95 3 25 7 56 10 70 2 14 7 45
10 70 3 25 7 56 9 70 2 14 7 52 11 85 3 33 8 69 10 80 2 11 6 43 9 70 3 28 7
61 10 75 2 14 7 57 11 95 4 39 8 81 10 95 1 14 5 52 8 85 3 33 8 83 11 110 30
286 49 1158 33 1520 -12 299 72 457 247 459 86 1 134 -11 249 -63 139 -63 207
-90 266 -106 3 -1 12 -4 20 -8 8 -3 35 -11 60 -18 43 -11 56 -14 101 -24 11
-2 28 -6 37 -9 9 -3 35 -7 57 -11 41 -6 72 -11 113 -19 13 -3 51 -8 85 -12 34
-3 76 -8 92 -10 155 -17 628 -22 885 -10 69 4 161 8 205 10 87 5 253 15 350
22 33 2 96 6 140 8 82 5 201 14 290 22 28 3 75 7 105 9 30 3 78 7 105 10 28 4
64 8 80 9 17 2 57 7 90 11 33 3 71 9 85 11 14 3 41 7 60 9 38 3 107 13 155 21
17 3 42 7 58 10 15 2 39 6 55 8 15 3 41 7 57 10 17 3 46 8 65 11 19 3 58 10
85 15 28 5 61 12 75 14 14 3 36 8 50 11 14 3 36 7 50 10 52 10 72 14 88 19 9
3 34 7 56 11 21 3 42 7 46 10 3 2 20 7 36 9 45 9 59 12 209 51 77 20 147 38
155 40 8 2 53 16 100 30 47 14 110 33 140 42 30 8 60 18 65 21 6 4 15 7 20 9
11 2 92 31 115 40 8 3 20 7 27 9 7 1 26 9 43 17 25 13 131 34 150 30 3 -1 19
-3 36 -6 168 -26 310 -254 380 -612 2 -11 6 -31 9 -45 7 -36 16 -100 19 -140
3 -34 15 -114 22 -155 6 -29 24 -146 28 -175 3 -25 15 -97 22 -135 2 -11 7
-45 10 -75 3 -30 7 -57 9 -60 2 -3 7 -35 10 -70 4 -36 8 -67 10 -70 2 -4 6
-31 9 -61 4 -30 8 -70 11 -89 2 -19 7 -57 10 -85 4 -27 9 -63 11 -80 3 -16 7
-52 10 -80 2 -27 6 -68 8 -90 5 -40 11 -109 22 -235 3 -36 7 -76 10 -90 2 -14
7 -43 9 -65 3 -22 12 -78 21 -125 32 -183 41 -225 44 -225 1 0 3 -9 5 -20 1
-11 9 -47 17 -80 11 -42 15 -112 14 -232 l-1 -172 69 -3 c37 -2 73 0 78 3 6 4
23 3 38 -1 27 -8 28 -6 40 49 7 31 15 61 18 66 4 6 7 15 8 21 1 7 10 45 19 85
9 41 18 82 20 92 2 10 6 26 9 35 3 9 8 32 11 50 3 18 12 61 21 95 8 34 16 71
18 82 2 11 16 56 31 100 15 44 28 87 29 95 1 8 5 26 9 40 6 24 67 299 71 323
1 7 5 21 9 32 3 11 8 36 11 55 4 19 11 53 16 75 6 22 13 54 15 70 3 17 7 40
10 53 5 26 18 138 19 165 0 9 3 17 6 17 3 0 5 21 6 48 0 26 3 79 7 117 28 267
28 689 1 920 -6 49 -36 198 -69 340 -9 39 -17 79 -19 90 -2 11 -6 31 -10 45
-3 14 -8 36 -11 50 -51 271 -132 471 -226 562 -10 10 -21 24 -26 31 -12 19
-123 102 -168 125 -75 38 -112 52 -196 72 -125 31 -115 29 -274 46 -33 4 -67
8 -75 9 -8 2 -19 4 -23 4 -4 1 5 20 21 44 54 80 146 274 158 331 2 10 8 33 14
51 41 124 -12 338 -126 509 -21 32 -43 66 -49 74 -11 17 -35 48 -50 66 -5 6
-32 38 -60 71 -92 110 -268 275 -435 408 -37 30 -196 162 -200 167 -4 5 -206
172 -254 210 -10 8 -24 20 -31 27 -6 6 -34 18 -61 26 -244 73 -481 260 -676
537 -61 87 -94 124 -101 114z"/>
<path d="M1629 2646 c-2 -2 -20 -7 -39 -10 -59 -9 -153 -42 -220 -78 -76 -40
-206 -164 -245 -233 -16 -27 -33 -57 -40 -65 -12 -16 -42 -100 -50 -140 -3
-14 -8 -38 -12 -55 -9 -41 -9 -1318 0 -1377 4 -25 14 -66 23 -90 9 -24 17 -47
18 -53 1 -5 11 -26 21 -45 11 -19 19 -37 20 -40 1 -13 67 -99 106 -140 107
-111 271 -195 404 -207 76 -7 1160 -8 1215 -1 68 8 106 16 145 28 17 6 33 10
37 10 34 2 203 115 260 174 128 133 207 321 207 493 1 38 1 77 1 88 1 79 -1
138 -6 146 -3 5 -1 9 3 9 5 0 7 29 5 63 l-4 64 631 0 c448 0 631 -3 632 -11 1
-6 2 -108 4 -226 2 -184 5 -227 24 -299 12 -46 27 -93 34 -105 6 -12 10 -24 9
-28 -1 -5 3 -8 8 -8 6 0 10 -6 10 -13 0 -20 66 -112 122 -170 98 -101 223
-172 358 -204 56 -13 193 -16 720 -16 605 0 697 2 715 12 6 3 17 6 25 7 16 1
28 5 95 32 83 33 190 117 262 206 43 52 90 160 111 256 3 14 7 351 8 750 3
677 2 730 -16 796 -18 69 -54 157 -75 181 -5 7 -28 36 -49 66 -73 99 -218 189
-356 221 -55 13 -163 15 -725 13 -363 -1 -671 -6 -685 -10 -14 -4 -38 -9 -55
-13 -40 -8 -77 -23 -151 -60 -180 -91 -313 -262 -370 -474 -14 -54 -17 -114
-18 -362 l-1 -298 -631 0 -632 0 0 260 c-1 144 -4 284 -7 313 -30 250 -172
451 -401 571 -28 15 -60 29 -70 31 -10 3 -44 13 -74 22 -49 16 -120 18 -676
20 -341 2 -622 1 -625 -1z m1246 -255 c144 -35 270 -148 331 -296 l29 -70 1
-623 c1 -376 -3 -642 -9 -670 -39 -187 -204 -346 -392 -377 -74 -12 -1180 -7
-1227 5 -60 16 -138 51 -138 61 0 5 -6 9 -14 9 -18 0 -147 140 -140 152 3 4 0
8 -5 8 -6 0 -10 3 -9 8 1 4 -6 25 -16 47 -9 22 -20 64 -24 95 -9 63 -7 1263 1
1298 18 74 37 116 77 175 29 44 95 107 111 107 5 0 9 3 9 8 0 11 72 43 141 62
57 15 122 17 644 15 418 -1 594 -5 630 -14z m3840 5 c61 -18 131 -60 182 -112
29 -29 53 -60 53 -69 0 -8 4 -15 8 -15 9 0 34 -62 41 -105 8 -46 5 -1416 -3
-1450 -13 -55 -61 -138 -106 -183 -45 -45 -139 -96 -195 -107 -59 -11 -1278
-7 -1329 5 -187 42 -346 210 -373 394 -8 56 -8 1190 0 1246 8 53 35 129 54
151 7 8 13 21 13 28 0 23 135 146 190 173 110 54 110 54 797 53 351 -1 652 -5
668 -9z"/>
<path d="M1708 1972 c-16 -2 -28 -7 -28 -11 0 -4 -7 -16 -15 -26 -15 -18 -189
-265 -218 -309 -6 -10 -20 -29 -29 -41 -21 -26 -22 -35 -8 -35 12 0 94 -52 98
-62 2 -5 8 -8 13 -8 5 0 27 -11 49 -25 22 -14 42 -25 44 -25 3 0 19 21 36 46
18 25 34 43 36 41 3 -3 5 -169 5 -369 l-1 -365 538 2 c295 1 539 3 542 3 3 1
5 170 4 374 -1 205 1 377 3 381 3 4 14 -5 26 -20 11 -15 33 -42 48 -59 l26
-32 94 64 c51 35 97 68 101 72 5 5 -2 22 -16 40 -14 16 -26 34 -26 40 0 6 -4
12 -9 14 -5 2 -59 68 -121 148 -62 80 -116 149 -120 153 -4 5 -69 8 -144 8
l-137 -1 -92 -44 c-51 -24 -99 -44 -107 -45 -79 -6 -117 -7 -125 -2 -5 3 -17
7 -26 8 -9 1 -27 7 -40 12 -13 5 -27 9 -31 10 -4 1 -32 15 -62 31 -50 28 -63
30 -168 33 -62 1 -125 1 -140 -1z"/>
<path d="M5555 1972 c-40 -3 -85 -34 -85 -58 0 -7 -3 -14 -8 -16 -8 -3 -242
-334 -242 -343 0 -3 6 -5 13 -5 7 0 23 -9 35 -20 12 -11 24 -20 28 -20 4 0 35
-18 70 -40 35 -22 66 -40 68 -40 3 0 20 21 38 48 l33 47 5 -370 5 -370 538 -1
c485 -1 537 1 538 15 0 9 1 178 1 376 0 198 3 364 5 368 3 4 17 -9 33 -30 16
-21 37 -48 47 -60 l18 -22 70 50 c39 27 77 52 85 56 8 4 24 15 34 25 18 16 18
19 4 35 -22 26 -39 48 -118 148 -39 50 -77 99 -86 110 -9 11 -32 41 -52 68
-40 52 -22 48 -216 48 -93 0 -103 -2 -175 -37 -114 -56 -116 -57 -173 -59 -47
-1 -113 12 -158 32 -8 3 -17 7 -20 8 -3 1 -30 14 -61 29 -47 22 -71 27 -145
29 -49 1 -107 1 -129 -1z"/>
</g>
</svg>
